<?xml version="1.0" encoding="utf-8"?>
<svg viewBox="0 0 500 500" xmlns="http://www.w3.org/2000/svg" xmlns:bx="https://boxy-svg.com">
  <defs>
    <bx:grid x="-96.568" y="-5.038" width="90.331" height="103.088"/>
  </defs>
  <g transform="matrix(1.219919, 0, 0, 1.075634, -64.395958, -29.638037)">
    <g transform="matrix(1, 0, 0, 1, 75.303467, -69.869003)">
      <g>
        <path d="M 175.01 181.569 C 222.81 181.569 228.41 181.769 247.31 182.569 C 264.71 183.369 274.21 186.269 280.51 188.769 C 288.91 191.969 294.81 195.869 301.11 202.169 C 307.41 208.469 311.21 214.369 314.51 222.769 C 317.01 229.069 319.91 238.569 320.71 255.969 C 321.61 274.869 321.71 280.469 321.71 328.269 C 321.71 376.069 321.51 381.669 320.71 400.569 C 319.91 417.969 317.01 427.469 314.51 433.769 C 311.31 442.169 307.41 448.069 301.11 454.369 C 294.81 460.669 288.91 464.469 280.51 467.769 C 274.21 470.269 264.71 473.169 247.31 473.969 C 228.41 474.869 222.81 474.969 175.01 474.969 C 127.21 474.969 121.61 474.769 102.71 473.969 C 85.31 473.169 75.81 470.269 69.51 467.769 C 61.11 464.569 55.21 460.669 48.91 454.369 C 42.61 448.069 38.81 442.169 35.51 433.769 C 33.01 427.469 30.11 417.969 29.31 400.569 C 28.41 381.669 28.31 376.069 28.31 328.269 C 28.31 280.469 28.51 274.869 29.31 255.969 C 30.11 238.569 33.01 229.069 35.51 222.769 C 38.71 214.369 42.61 208.469 48.91 202.169 C 55.21 195.869 61.11 192.069 69.51 188.769 C 75.81 186.269 85.31 183.369 102.71 182.569 C 121.61 181.769 127.21 181.569 175.01 181.569 M 175.01 149.369 C 126.41 149.369 120.31 149.569 101.21 150.469 C 82.21 151.369 69.11 154.369 57.81 158.769 C 46.01 163.369 36.11 169.469 26.11 179.369 C 16.21 189.269 10.01 199.269 5.51 211.069 C 1.11 222.469 -1.89 235.469 -2.79 254.469 C -3.69 273.569 -3.89 279.669 -3.89 328.269 C -3.89 376.869 -3.69 382.969 -2.79 402.069 C -1.89 421.069 1.11 434.169 5.51 445.469 C 10.11 457.269 16.21 467.169 26.11 477.169 C 36.01 487.069 46.01 493.269 57.81 497.769 C 69.21 502.169 82.21 505.169 101.21 506.069 C 120.31 506.969 126.41 507.169 175.01 507.169 C 223.61 507.169 229.71 506.969 248.81 506.069 C 267.81 505.169 280.91 502.169 292.21 497.769 C 304.01 493.169 313.91 487.069 323.91 477.169 C 333.81 467.269 340.01 457.269 344.51 445.469 C 348.91 434.069 351.91 421.069 352.81 402.069 C 353.71 382.969 353.91 376.869 353.91 328.269 C 353.91 279.669 353.71 273.569 352.81 254.469 C 351.91 235.469 348.91 222.369 344.51 211.069 C 339.91 199.269 333.81 189.369 323.91 179.369 C 314.01 169.469 304.01 163.269 292.21 158.769 C 280.81 154.369 267.81 151.369 248.81 150.469 C 229.71 149.569 223.61 149.369 175.01 149.369 L 175.01 149.369 Z" style="stroke-width: 9.76819px; fill: rgba(245, 238, 238, 0); stroke: rgb(51, 51, 51);"/>
        <circle cx="270.51" cy="232.769" r="21.5" style="stroke-width: 9.76819px; fill: rgba(245, 238, 238, 0); stroke: rgb(51, 51, 51);"/>
      </g>
      <path d="M 175.01 236.369 C 124.31 236.369 83.11 277.469 83.11 328.269 C 83.11 379.069 124.21 420.169 175.01 420.169 C 225.81 420.169 266.91 379.069 266.91 328.269 C 266.91 277.469 225.71 236.369 175.01 236.369 Z M 175.01 387.869 C 142.11 387.869 115.41 361.169 115.41 328.269 C 115.41 295.369 142.11 268.669 175.01 268.669 C 207.91 268.669 234.61 295.369 234.61 328.269 C 234.61 361.169 207.91 387.869 175.01 387.869 Z" style="stroke-width: 9.76819px; fill: rgba(245, 238, 238, 0); stroke: rgb(51, 51, 51);"/>
    </g>
  </g>
</svg>