<?xml version="1.0" encoding="utf-8"?>
<svg viewBox="0 0 316 316" xmlns="http://www.w3.org/2000/svg" xmlns:bx="https://boxy-svg.com">
  <g>
    <g id="SvgjsG2133" featurekey="1p4tPl-0" transform="matrix(1.253369, 0, 0, 1.388647, 87.502945, 70.97699)" fill="url(#SvgjsLinearGradient2137)">
      <title xmlns="http://www.w3.org/2000/svg">The Noun Project</title>
      <g xmlns="http://www.w3.org/2000/svg" data-name="Shape 118" transform="matrix(1.592533, 0, 0, 1.433482, -26.552973, -33.856052)">
        <path class="cls-1" d="M96.15,60.89a40.18,40.18,0,0,1-3,8.36C89.52,76.49,83.2,82,76.67,86.79a49,49,0,0,1-7.2,4.57C64.05,94,57.93,95,51.89,95.19c-12.82.48-26.34-2.34-36-10.84a39.5,39.5,0,0,1-7.35-8.78A44.13,44.13,0,0,1,9,29.35C17,17.14,30.71,9.64,44.88,6.32A54.67,54.67,0,0,1,55.52,4.78,41.1,41.1,0,0,1,89.61,21.51c8,11.14,9.87,26.05,6.55,39.38M75,12.89c-4.78-2.74-10.35-3.82-15.85-4.13-11.83-.66-24,2.22-33.79,8.87S8.21,34.79,6.23,46.48,7.9,70.85,16.37,79.14A34.45,34.45,0,0,0,37.5,88.76c2.45,0.2,5.19.24,6.93,2a5.45,5.45,0,0,0,3.62,1.18c17.25,1,34.64-9.34,41.94-25s4.06-35.64-7.82-48.2A31.78,31.78,0,0,0,75,12.89Z" style="fill: rgb(167, 46, 98);"/>
        <path class="cls-1" d="M28,68.87A5.08,5.08,0,0,1,26.89,72a8.38,8.38,0,0,1-2.41,2.62,3.66,3.66,0,0,1-3.42.38,3.41,3.41,0,0,1-1.82-2.77,5.53,5.53,0,0,1,.86-3.3A5.58,5.58,0,0,1,24.21,66,3.47,3.47,0,0,1,28,68.87M22.42,70c-0.44.77-.58,2,0.26,2.33a1.46,1.46,0,0,0,1.18-.21,2.55,2.55,0,0,0,1.35-1.67,1.41,1.41,0,0,0-1.09-1.66A2,2,0,0,0,22.42,70Z" style="fill: rgb(167, 46, 98);"/>
        <path class="cls-1" d="M58,78.25a5,5,0,0,1,3.45.21,3.29,3.29,0,0,1,2,1.2A2.58,2.58,0,0,1,63,82.41a25.64,25.64,0,0,0-1.86,2.28,1.84,1.84,0,0,1-2.13.69,3.6,3.6,0,0,1-1.81-1.54,4.91,4.91,0,0,1-.89-3A3,3,0,0,1,58,78.25m2.74,3.24a0.76,0.76,0,0,0-1.38-.3,1.51,1.51,0,0,0,.67.69,0.52,0.52,0,0,0,.72-0.41v0Z" style="fill: rgb(167, 46, 98);"/>
        <path class="cls-1" d="M82.31,51.85A3.21,3.21,0,0,1,81,49.06a4,4,0,0,1,4.15-3.19,3.79,3.79,0,0,1,3.28,4,3.62,3.62,0,0,1-4.13,3,4.49,4.49,0,0,1-2-1.08m3.48-2.17a1.16,1.16,0,1,0-1.83.83A1.22,1.22,0,0,0,85.78,49.68Z" style="fill: rgb(167, 46, 98);"/>
        <path class="cls-1" d="M79.28,68.41c-1.21,2.39-2.72,5-5.27,5.8-4,1.32-7.78-2.15-10.73-5.12a96.61,96.61,0,0,0-11.44-9.85c1.69,5.65,3.38,11.64,2,17.37a7.56,7.56,0,0,1-3.24,5,9.65,9.65,0,0,1-3.48.91,24.15,24.15,0,0,1-8.36.12C36,82,33.34,80.23,32.5,77.55c-1.06-3.38,1-6.88,2.9-9.84l9-13.85L30.62,59a31.53,31.53,0,0,1-8,2.18,10.62,10.62,0,0,1-7.81-2.09c-2.53-2.14-3.46-5.65-3.53-9-0.1-5.18,2.08-10.88,6.82-13s10.07-.05,14.78,2l7.71,3.29a77.55,77.55,0,0,1-6.46-10.28c-1.81-3.46-3.33-7.81-1.23-11.11a17.75,17.75,0,0,1,17.66-7.73,9.32,9.32,0,0,1,4.87,2.21c3,2.89,2.47,7.75,1.71,11.85L55,38.82,65.46,23.62c1.58-2.3,3.57-4.84,6.37-4.93,2.55-.08,4.64,2,6.06,4.08a25.18,25.18,0,0,1,4,17.72c-0.41,2.63-1.37,5.38-3.55,6.9-1.72,1.2-3.92,1.44-6,1.64l-7.1.69c4.69,2.16,11,.47,14.67,4.14a8.73,8.73,0,0,1,2.07,7.25,23,23,0,0,1-2.63,7.31m-29-21.58,4.68-23a6.88,6.88,0,0,0-3.87-7.19,10.19,10.19,0,0,0-8.5.15,20.24,20.24,0,0,0-6.81,5.43c-1.42,1.63-.7,4.15.21,6.11a52.82,52.82,0,0,0,14.3,18.47M73.81,23a2.5,2.5,0,0,0-2.27-1.11,2.56,2.56,0,0,0-1.17.87C63.67,30.24,58.87,39.17,54.13,48a0.89,0.89,0,0,0-.12.88,0.9,0.9,0,0,0,1,.16A111.47,111.47,0,0,1,74.7,46c1.73-.11,2.79-1.93,3.31-3.59A20.38,20.38,0,0,0,73.81,23M14.58,52.21a7.65,7.65,0,0,0,1.52,3.55c2.24,2.61,6.36,2.14,9.7,1.29a111.27,111.27,0,0,0,20.4-7.39c-2.11-2-4.85-3.24-7.53-4.41L27.38,40.33a13.71,13.71,0,0,0-3.85-1.24,8.27,8.27,0,0,0-7.71,4.15,12.76,12.76,0,0,0-1.23,9m57.95,2.07c-6.81-1.54-14-2.78-20.7-.92A245.24,245.24,0,0,0,70.29,70.69a3.43,3.43,0,0,0,4.14-.17,8.45,8.45,0,0,0,2.46-3.68,35.53,35.53,0,0,0,1.62-4.9,6.83,6.83,0,0,0,.16-3.72c-0.78-2.43-3.65-3.37-6.14-3.94M50.62,75.47c1.52-6.59-2-13.25-2.35-20A0.6,0.6,0,0,0,47.46,55a1.74,1.74,0,0,0-.77.72q-4.77,6.78-9.18,13.8a13.39,13.39,0,0,0-2,4.2,4.67,4.67,0,0,0,1.07,4.34c1.75,1.67,4.54,1.09,6.95,1.24,1.58,0.1,3.27.53,4.69-.17A5.22,5.22,0,0,0,50.62,75.47Z" style="fill: rgb(167, 46, 98);"/>
        <path class="cls-1" d="M23.66,32.06a3.49,3.49,0,0,1-1.62.21,2.61,2.61,0,0,1-2-2.8,3.75,3.75,0,0,1,2.19-2.89c1.57-.75,3.86-0.31,4.42,1.35s-1.18,3.55-3,4.14m0.54-2.38A1.11,1.11,0,0,0,24.63,29a1.1,1.1,0,0,0-.71-0.42,1.1,1.1,0,0,0-.42.71,1.08,1.08,0,0,0,.71.42h0Z" style="fill: rgb(167, 46, 98);"/>
        <path class="cls-1" d="M61.44,18.42a3,3,0,0,1-.22-3.13,3.2,3.2,0,0,1,1.25-1.46,2.76,2.76,0,0,1,3.8,1.51,3.12,3.12,0,0,1-1.91,3.76A2.7,2.7,0,0,1,61.44,18.42Z" style="fill: rgb(167, 46, 98);"/>
      </g>
    </g>
    <path d="M 28.875 230.078 L 16.275 230.078 L 16.613 241.452 L 28.939 241.452 C 29.816 241.452 30.33 242.157 30.367 243.412 L 30.609 251.569 C 30.647 252.825 30.175 253.53 29.298 253.53 L 16.972 253.53 L 17.488 270.941 C 17.526 272.196 17.054 272.902 16.177 272.902 L 10.151 272.902 C 9.275 272.902 8.761 272.196 8.723 270.941 L 7.21 219.961 C 7.173 218.707 7.645 218 8.521 218 L 15.917 218 L 28.517 218 C 29.393 218 29.907 218.707 29.944 219.961 L 30.186 228.117 C 30.223 229.373 29.751 230.078 28.875 230.078 Z M 49.353 274 C 41.3 274 34.567 264.98 34.221 253.293 C 33.874 241.608 40.071 232.589 48.124 232.589 C 56.177 232.589 62.909 241.608 63.256 253.293 C 63.602 264.98 57.406 274 49.353 274 Z M 49.013 262.549 C 52.574 262.549 55.204 258.862 55.039 253.293 C 54.873 247.726 52.025 244.04 48.464 244.04 C 44.903 244.04 42.273 247.726 42.439 253.293 C 42.604 258.862 45.452 262.549 49.013 262.549 Z M 81.674 274 C 73.621 274 66.889 264.98 66.543 253.293 C 66.196 241.608 72.392 232.589 80.445 232.589 C 88.498 232.589 95.23 241.608 95.577 253.293 C 95.923 264.98 89.727 274 81.674 274 Z M 81.334 262.549 C 84.895 262.549 87.525 258.862 87.36 253.293 C 87.194 247.726 84.346 244.04 80.785 244.04 C 77.224 244.04 74.594 247.726 74.76 253.293 C 74.925 258.862 77.773 262.549 81.334 262.549 Z M 125.92 218 C 126.796 218 127.31 218.707 127.347 219.961 L 128.86 270.941 C 128.898 272.196 128.426 272.902 127.55 272.902 L 122.071 272.902 C 121.195 272.902 120.681 272.196 120.643 270.941 L 120.593 269.239 C 118.85 272.229 116.237 274 112.572 274 C 105.395 274 99.211 264.98 98.865 253.293 C 98.518 241.608 104.166 232.589 111.343 232.589 C 115.008 232.589 117.725 234.359 119.646 237.349 L 119.13 219.961 C 119.093 218.707 119.565 218 120.441 218 L 125.92 218 Z M 113.885 262.863 C 117.665 262.863 120.294 259.177 120.12 253.293 C 119.945 247.412 117.096 243.726 113.316 243.726 C 109.536 243.726 106.907 247.412 107.082 253.293 C 107.256 259.177 110.105 262.863 113.885 262.863 Z M 155.312 230.078 L 142.712 230.078 L 143.05 241.452 L 155.376 241.452 C 156.253 241.452 156.767 242.157 156.804 243.412 L 157.046 251.569 C 157.084 252.825 156.612 253.53 155.735 253.53 L 143.409 253.53 L 143.925 270.941 C 143.963 272.196 143.491 272.902 142.615 272.902 L 136.589 272.902 C 135.712 272.902 135.198 272.196 135.16 270.941 L 133.647 219.961 C 133.61 218.707 134.082 218 134.959 218 L 142.354 218 L 154.954 218 C 155.831 218 156.345 218.707 156.382 219.961 L 156.624 228.117 C 156.661 229.373 156.189 230.078 155.312 230.078 Z M 175.79 274 C 167.737 274 161.005 264.98 160.659 253.293 C 160.312 241.608 166.508 232.589 174.561 232.589 C 182.614 232.589 189.346 241.608 189.693 253.293 C 190.039 264.98 183.843 274 175.79 274 Z M 175.45 262.549 C 179.011 262.549 181.641 258.862 181.476 253.293 C 181.31 247.726 178.462 244.04 174.901 244.04 C 171.34 244.04 168.71 247.726 168.876 253.293 C 169.041 258.862 171.889 262.549 175.45 262.549 Z M 207.663 233.059 C 208.588 232.823 209.106 233.685 209.144 234.941 L 209.418 244.196 C 209.456 245.45 209.09 246.078 208.378 246.078 C 205.306 245.921 202.413 248.117 202.599 254.392 L 203.09 270.94 C 203.128 272.196 202.656 272.901 201.779 272.901 L 196.301 272.901 C 195.425 272.901 194.911 272.196 194.873 270.94 L 193.826 235.646 C 193.788 234.391 194.26 233.685 195.136 233.685 L 200.614 233.685 C 201.491 233.685 202.005 234.391 202.043 235.646 L 202.168 239.886 C 202.869 235.948 204.959 233.644 207.663 233.059 Z M 240.743 218 C 241.784 218 242.25 218.942 241.744 220.354 L 231.196 248.868 L 231.851 270.941 C 231.889 272.196 231.417 272.902 230.54 272.902 L 224.514 272.902 C 223.637 272.902 223.123 272.196 223.085 270.941 L 222.43 248.868 L 210.19 220.354 C 209.6 218.942 210.01 218 211.051 218 L 218.063 218 C 218.83 218 219.337 218.471 219.694 219.412 L 226.447 236.536 L 232.184 219.412 C 232.485 218.471 232.964 218 233.731 218 L 240.743 218 Z M 260.428 274 C 252.375 274 245.643 264.98 245.297 253.293 C 244.95 241.608 251.146 232.589 259.199 232.589 C 267.252 232.589 273.985 241.608 274.332 253.293 C 274.678 264.98 268.481 274 260.428 274 Z M 260.088 262.549 C 263.649 262.549 266.279 258.862 266.114 253.293 C 265.948 247.726 263.1 244.04 259.539 244.04 C 255.978 244.04 253.348 247.726 253.514 253.293 C 253.679 258.862 256.527 262.549 260.088 262.549 Z M 300.427 233.686 C 301.304 233.686 301.818 234.393 301.856 235.647 L 302.903 270.941 C 302.941 272.196 302.469 272.902 301.592 272.902 L 296.114 272.902 C 295.238 272.902 294.724 272.196 294.686 270.941 L 294.638 269.319 C 293.431 272.045 291.157 274 287.655 274 C 282.56 274 278.723 268.352 278.432 258.548 L 277.752 235.647 C 277.714 234.393 278.186 233.686 279.062 233.686 L 284.541 233.686 C 285.417 233.686 285.931 234.393 285.969 235.647 L 286.618 257.53 C 286.735 261.451 288.375 263.176 290.457 263.176 C 292.922 263.176 294.398 261.214 294.26 256.588 L 293.639 235.647 C 293.601 234.393 294.073 233.686 294.949 233.686 L 300.427 233.686 Z" style="fill: rgb(167, 46, 98);" bx:origin="0.540391 0.601514"/>
  </g>
</svg>