<?xml version="1.0" encoding="utf-8"?>
<svg viewBox="0 0 500 500" xmlns="http://www.w3.org/2000/svg">
  <g transform="matrix(0.826301, 0, 0, 0.814777, 29.806986, 8.737034)">
    <path style="stroke-width: 14.6245px; stroke: rgb(51, 51, 51); fill: rgba(51, 51, 51, 0);" d="M 257.008 31.68 L 256.88 31.68 L 256.88 31.68 C 115.207 31.68 0 139.392 0 271.84 C 0 324.375 18.115 373.067 48.916 412.604 L 16.894 501.823 L 115.657 472.314 C 156.286 497.47 204.752 512 257.008 512 C 398.681 512 513.888 404.258 513.888 271.84 C 513.888 139.422 398.681 31.68 257.008 31.68 Z"/>
    <path style="stroke-width: 14.6245px; stroke: rgba(244, 236, 236, 0); fill: rgb(51, 51, 51);" d="M 401.199 360.155 C 395.023 377.595 370.511 392.059 350.959 396.283 C 337.583 399.131 320.111 401.403 261.295 377.019 C 186.063 345.851 137.615 269.403 133.839 264.443 C 130.223 259.483 103.439 223.963 103.439 187.227 C 103.439 150.491 122.095 132.603 129.615 124.923 C 135.791 118.619 145.999 115.739 155.791 115.739 C 158.959 115.739 161.807 115.899 164.367 116.027 C 171.887 116.347 175.663 116.795 180.623 128.667 C 186.799 143.547 201.839 180.283 203.631 184.059 C 205.455 187.835 207.279 192.955 204.719 197.915 C 202.319 203.035 200.207 205.307 196.431 209.659 C 192.655 214.011 189.071 217.339 185.295 222.011 C 181.839 226.075 177.935 230.427 182.287 237.947 C 186.639 245.307 201.679 269.851 223.823 289.563 C 252.399 315.003 275.567 323.131 283.855 326.587 C 290.031 329.147 297.391 328.539 301.903 323.739 C 307.631 317.563 314.703 307.323 321.903 297.243 C 327.023 290.011 333.487 289.115 340.271 291.675 C 347.183 294.075 383.759 312.155 391.279 315.899 C 398.799 319.675 403.759 321.467 405.583 324.635 C 407.375 327.803 407.375 342.683 401.199 360.155 Z"/>
  </g>
</svg>